<svg xmlns="http://www.w3.org/2000/svg" xmlns:xlink="http://www.w3.org/1999/xlink" width="512" height="512"><defs><linearGradient id="a"><stop offset="0" style="stop-color:#00f;stop-opacity:1"/><stop offset="1" style="stop-color:#f0f;stop-opacity:1"/></linearGradient><linearGradient xlink:href="#a" id="c" x1="109.869" x2="397.677" y1="512.86" y2="101.911" gradientTransform="translate(0 -.86)" gradientUnits="userSpaceOnUse"/><linearGradient xlink:href="#a" id="b" x1="415.251" x2="1368.675" y1="1935.118" y2="520.73" gradientTransform="matrix(.26458 0 0 .26458 0 0)" gradientUnits="userSpaceOnUse"/></defs><path d="M315.25 79.15c-12.454-.292-23.372 4.248-31.535 9.377-10.047 6.313-17.682 14.114-24.336 22.354-1.22 1.509-2.226 3.058-3.379 4.58-1.153-1.52-2.162-3.074-3.379-4.58-6.654-8.24-14.256-16.041-24.303-22.354-7.535-4.735-17.414-8.961-28.69-9.357a48.578 48.578 0 0 0-11.696 1.006c-16.12 3.383-26.87 13.997-33.532 23.816-6.661 9.82-10.475 19.997-13.255 30.217-2.649 9.731-4.415 19.268-5.135 28.69-9.293-1.456-19.853-1.068-30.38 3.964-14.86 7.104-22.853 20.074-27 31.192-4.145 11.117-5.5 21.837-5.782 32.425-.56 21.176 2.406 40.583 10.949 58.452 21.265 52.208 14.765 138.411 10.017 221.775h317.47c-7.417-85.434-14.18-174.271 16.952-221.775 8.542-17.87 11.476-37.276 10.916-58.452-.282-10.588-1.602-21.308-5.75-32.425-4.146-11.118-12.172-24.088-27.033-31.192-10.538-5.038-21.079-5.426-30.379-3.965-.72-9.42-2.454-18.958-5.101-28.689-2.781-10.22-6.595-20.398-13.256-30.217-6.662-9.819-17.412-20.433-33.531-23.816a48.575 48.575 0 0 0-8.852-1.026z" style="color:#000;font-style:normal;font-variant:normal;font-weight:400;font-stretch:normal;font-size:medium;line-height:normal;font-family:sans-serif;font-variant-ligatures:normal;font-variant-position:normal;font-variant-caps:normal;font-variant-numeric:normal;font-variant-alternates:normal;font-variant-east-asian:normal;font-feature-settings:normal;font-variation-settings:normal;text-indent:0;text-align:start;text-decoration:none;text-decoration-line:none;text-decoration-style:solid;text-decoration-color:#000;letter-spacing:normal;word-spacing:normal;text-transform:none;writing-mode:lr-tb;direction:ltr;text-orientation:mixed;dominant-baseline:auto;baseline-shift:baseline;text-anchor:start;white-space:normal;shape-padding:0;shape-margin:0;inline-size:0;clip-rule:nonzero;display:inline;overflow:visible;visibility:visible;isolation:auto;mix-blend-mode:normal;color-interpolation:sRGB;color-interpolation-filters:linearRGB;solid-color:#000;solid-opacity:1;vector-effect:none;fill:#fff;fill-opacity:1;fill-rule:evenodd;stroke:none;stroke-width:1.49999;stroke-linecap:round;stroke-linejoin:round;stroke-miterlimit:4;stroke-dasharray:none;stroke-dashoffset:4;stroke-opacity:1;paint-order:stroke fill markers;color-rendering:auto;image-rendering:auto;shape-rendering:auto;text-rendering:auto;enable-background:accumulate;stop-color:#000"/><path d="M198.488 31.998a96.105 96.105 0 0 0-20.207 2.008 47.16 47.16 0 0 0-.033.033c-31.398 6.59-51.84 27.217-62.871 43.475-10.352 15.257-15.92 30.812-19.494 43.83-3.571 1.186-7.024 1.282-10.592 2.988-29.076 13.899-43.964 38.796-50.848 57.25-6.44 17.266-8.374 33.87-8.74 47.633a47.16 47.16 0 0 0 0 .033c-.678 25.572 2.93 52.382 14.518 77.73-.031-.077-.06-.163-.092-.24l1.137 2.535c-.365-.761-.696-1.53-1.045-2.294 11.397 28.342 12.428 97.187 8.355 169.265-.646 11.442-1.345 22.947-2.01 34.463h47.248c4.748-83.363 11.248-169.566-10.017-221.773-8.543-17.87-11.509-37.276-10.95-58.452.282-10.588 1.637-21.308 5.784-32.425 4.147-11.118 12.139-24.088 27-31.192 10.526-5.032 21.086-5.42 30.379-3.965.72-9.42 2.484-18.958 5.133-28.69 2.78-10.219 6.596-20.397 13.257-30.216 6.662-9.819 17.41-20.433 33.53-23.816a48.548 48.548 0 0 1 11.697-1.008c11.275.393 21.154 4.622 28.69 9.357 10.046 6.313 17.65 14.116 24.304 22.356 1.217 1.506 2.226 3.06 3.379 4.58 1.153-1.522 2.16-3.071 3.379-4.58 6.654-8.24 14.289-16.043 24.336-22.356 10.047-6.313 24.267-11.731 40.387-8.35 16.119 3.384 26.869 13.998 33.53 23.817 6.662 9.82 10.476 19.997 13.257 30.217 2.647 9.731 4.379 19.268 5.1 28.69 9.3-1.462 19.842-1.074 30.38 3.964 14.86 7.104 22.885 20.074 27.031 31.192 4.148 11.117 5.47 21.837 5.752 32.425.563 21.176-2.375 40.583-10.918 58.452-31.133 47.503-24.37 136.34-16.953 221.773h47.442c-1.118-12.202-2.22-24.4-3.162-36.541-5.661-72.948-.636-139.907 12.119-159.37a47.16 47.16 0 0 0 3.086-5.523c12.458-26.06 16.23-53.762 15.53-80.058-.363-13.666-2.236-30.29-8.706-47.633-6.912-18.53-21.83-43.36-50.883-57.248-3.542-1.693-6.978-1.776-10.525-2.957-3.573-13.025-9.167-28.593-19.528-43.863-11.03-16.258-31.473-36.883-62.87-43.473-31.482-6.605-58.427 4.045-75.153 14.555-1.15.722-1.525 1.628-2.631 2.373-1.102-.742-1.455-1.653-2.6-2.373-12.546-7.884-30.029-15.767-52.115-16.537v-.002a96.21 96.21 0 0 0-2.797-.059z" style="color:#000;font-style:normal;font-variant:normal;font-weight:400;font-stretch:normal;font-size:medium;line-height:normal;font-family:sans-serif;font-variant-ligatures:normal;font-variant-position:normal;font-variant-caps:normal;font-variant-numeric:normal;font-variant-alternates:normal;font-variant-east-asian:normal;font-feature-settings:normal;font-variation-settings:normal;text-indent:0;text-align:start;text-decoration:none;text-decoration-line:none;text-decoration-style:solid;text-decoration-color:#000;letter-spacing:normal;word-spacing:normal;text-transform:none;writing-mode:lr-tb;direction:ltr;text-orientation:mixed;dominant-baseline:auto;baseline-shift:baseline;text-anchor:start;white-space:normal;shape-padding:0;shape-margin:0;inline-size:0;clip-rule:nonzero;display:inline;overflow:visible;visibility:visible;isolation:auto;mix-blend-mode:normal;color-interpolation:sRGB;color-interpolation-filters:linearRGB;solid-color:#000;solid-opacity:1;vector-effect:none;fill:url(#b);fill-opacity:1;fill-rule:evenodd;stroke:none;stroke-width:1.49999;stroke-linecap:round;stroke-linejoin:round;stroke-miterlimit:4;stroke-dasharray:none;stroke-dashoffset:4;stroke-opacity:1;paint-order:stroke fill markers;color-rendering:auto;image-rendering:auto;shape-rendering:auto;text-rendering:auto;enable-background:accumulate;stop-color:#000"/><path d="M255.984 284.304c-20.647 0-38.273 12.997-48.384 28.982l-23.455 37.086a31.44 31.44 0 0 0 26.648 48.26h90.382a31.44 31.44 0 0 0 26.648-48.26l-23.455-37.086c-10.125-16.045-27.797-28.982-48.384-28.982zm-143.916-3.21c9.758 20.41 34.212 29.045 54.622 19.289 20.41-9.757 29.045-34.213 19.288-54.622-9.758-20.41-46.444-54.63-66.853-44.872-20.41 9.756-16.814 59.796-7.057 80.206zm287.847 0c-9.757 20.41-34.212 29.045-54.622 19.289-20.41-9.757-29.045-34.213-19.287-54.622 9.757-20.41 46.443-54.63 66.853-44.872 20.41 9.756 16.813 59.796 7.056 80.206zm-231.363-88.24c4.646 22.14 26.36 36.322 48.5 31.676 22.14-4.646 36.321-26.36 31.675-48.5-4.646-22.14-32.183-64.074-54.323-59.428-22.14 4.646-30.498 54.112-25.852 76.252zm174.879 0c-4.646 22.14-26.36 36.322-48.5 31.676-22.14-4.646-36.32-26.36-31.675-48.5 4.646-22.14 32.183-64.074 54.323-59.428 22.14 4.646 30.498 54.112 25.852 76.252z" style="color:#000;font-style:normal;font-variant:normal;font-weight:400;font-stretch:normal;font-size:medium;line-height:normal;font-family:sans-serif;font-variant-ligatures:normal;font-variant-position:normal;font-variant-caps:normal;font-variant-numeric:normal;font-variant-alternates:normal;font-variant-east-asian:normal;font-feature-settings:normal;font-variation-settings:normal;text-indent:0;text-align:start;text-decoration:none;text-decoration-line:none;text-decoration-style:solid;text-decoration-color:#000;letter-spacing:normal;word-spacing:normal;text-transform:none;writing-mode:lr-tb;direction:ltr;text-orientation:mixed;dominant-baseline:auto;baseline-shift:baseline;text-anchor:start;white-space:normal;shape-padding:0;shape-margin:0;inline-size:0;clip-rule:nonzero;display:inline;overflow:visible;visibility:visible;isolation:auto;mix-blend-mode:normal;color-interpolation:sRGB;color-interpolation-filters:linearRGB;solid-color:#000;solid-opacity:1;vector-effect:none;fill:url(#c);fill-opacity:1;fill-rule:evenodd;stroke:none;stroke-width:.999998;stroke-linecap:round;stroke-linejoin:round;stroke-miterlimit:4;stroke-dasharray:none;stroke-dashoffset:4;stroke-opacity:1;paint-order:stroke fill markers;color-rendering:auto;image-rendering:auto;shape-rendering:auto;text-rendering:auto;enable-background:accumulate;stop-color:#000"/></svg>