<svg xmlns="http://www.w3.org/2000/svg" width="512" height="512" viewBox="0 0 33.867 33.867">
  <defs>
    <linearGradient id="a" x1="24.712" x2="3.59" y1="4.793" y2="28.978" gradientUnits="userSpaceOnUse">
      <stop offset="0" style="stop-color:#f0f;stop-opacity:1"/>
      <stop offset="1" style="stop-color:#3c00ff;stop-opacity:1"/>
    </linearGradient>
  </defs>
  <path d="M6.682 23.68c-.29-.013-.559.096-.637.261l-2.138 4.523c-.089.19.108.382.44.433h25.987c.333-.051.529-.244.44-.433l-2.137-4.523c-.09-.189-.43-.3-.762-.25L6.682 23.68z" style="opacity:1;fill:#000;fill-rule:evenodd;stroke:url(#a);stroke-width:2.00001969;stroke-linecap:round;stroke-linejoin:round;stroke-miterlimit:4;stroke-dasharray:none;stroke-dashoffset:4;paint-order:stroke fill markers"/>
  <path d="M27.042 19.318c.576.676.791 1.37.77 2.08-.023.825-.39 1.692-1.021 2.5-1.264 1.617-3.574 2.94-5.799 3.157-4.104.4-6.55.176-8.254-.426-1.96-.692-3.654-1.52-4.65-2.545-.996-1.025-1.371-2.176-.774-3.906l.065-.131c-.19-1.083-.15-2.307.195-3.684 1.124-4.002 3.894-7.618 8.034-8.677.936-1.416 1.603-2.175 3-2.86 1.262-.587 1.408-.134 1.157.621.83-.31 2.323-.175 3.115.108.668-.445 1.033-.526 1.36-.51.387.018.268.567.02 1.33.423 1.38 1.602 2.708 2 4.184 1.04 2.914-.203 3.403-.695 4.985.687 1.227 1.167 2.402 1.435 3.502l.042.272z" style="opacity:1;fill:#fff;fill-rule:evenodd;stroke:url(#a);stroke-width:2.00002;stroke-linecap:round;stroke-linejoin:bevel;stroke-dashoffset:4;paint-order:stroke fill markers"/>
  <path d="M15.391 24.357c.074-1.713-.726-2.536-4.328-2.468 4.782.154 4.416-4.036 2.242-5.323m3.157 8.8c-.598-.777-1.238-1.235-2.464-1.62-1.378-.433-3.28-.137-4.377-.254-2.232-.24-2.685-2.98-2.779-3.477-1.291 3.74 1.749 5.679 5.73 7.085 1.808.639 4.327.856 8.468.451 4.764-.465 9.626-5.504 6.046-8.914-.716-.682-2.661-1.265-3.9.398-.997 1.34-.218 2.493.593 3.228.491.445.981.896.874 1.703-.12.91-.527 1.337-.837 1.627-.415.4-.968.622-1.544.621-2.212.055-2.212-3.292 0-3.237m-3.309.45c2.234-.079 2.234 3.315 0 3.236-2.155-.007-3.28-1.84-3.117-4.002" style="opacity:1;fill:none;fill-rule:evenodd;stroke:url(#a);stroke-width:1.00001;stroke-linecap:round;stroke-linejoin:round;stroke-miterlimit:4;stroke-dasharray:none;stroke-dashoffset:4;paint-order:stroke fill markers"/>
  <path d="M21.432 10.379c.375-.045.73-.179.906-.571.126.254.26.483.697.647m-.915-1.606.413.328.412-.299" style="opacity:1;fill:none;stroke:url(#a);stroke-width:1.00001;stroke-linecap:round;stroke-linejoin:round;stroke-miterlimit:4;stroke-dasharray:none;stroke-opacity:1;fill-opacity:1"/>
  <circle cx="24.163" cy="8.564" r=".742" style="opacity:1;fill:url(#a);fill-rule:evenodd;stroke:none;stroke-width:1.00001;stroke-linecap:round;stroke-linejoin:round;stroke-miterlimit:4;stroke-dasharray:none;stroke-dashoffset:4;paint-order:stroke fill markers;fill-opacity:1"/>
  <circle cx="19.971" cy="8.501" r=".742" style="opacity:1;fill:url(#a);fill-rule:evenodd;stroke:none;stroke-width:1.00001;stroke-linecap:round;stroke-linejoin:round;stroke-miterlimit:4;stroke-dasharray:none;stroke-dashoffset:4;paint-order:stroke fill markers;fill-opacity:1"/>
  <path d="m17.173 9.144-1.354-.136m1.416 1.36-1.311.362m9.893-1.63 1.337-.256m-1.214 1.41 1.337.255" style="opacity:1;fill:none;fill-opacity:1;stroke:url(#a);stroke-width:1.00001;stroke-linecap:round;stroke-linejoin:miter;stroke-miterlimit:4;stroke-dasharray:none;stroke-opacity:1"/>
</svg>
